<svg viewBox="0 0 24 24" xmlns="http://www.w3.org/2000/svg">
    <path
            fill="currentColor"
            d="M12 .5C5.73.5.75 5.48.75 11.75c0 5.02 3.25 9.28 7.76 10.79.57.1.78-.25.78-.56 0-.28-.01-1.2-.02-2.18-3.16.69-3.82-1.34-3.82-1.34-.52-1.3-1.26-1.65-1.26-1.65-1.03-.7.08-.69.08-.69 1.13.08 1.73 1.17 1.73 1.17 1.01 1.72 2.64 1.22 3.29.93.1-.73.39-1.22.71-1.5-2.52-.29-5.18-1.26-5.18-5.63 0-1.24.44-2.25 1.17-3.05-.12-.29-.51-1.47.11-3.06 0 0 .95-.3 3.11 1.17a10.7 10.7 0 0 1 5.66 0c2.16-1.47 3.11-1.17 3.11-1.17.62 1.59.23 2.77.11 3.06.73.8 1.17 1.81 1.17 3.05 0 4.38-2.66 5.34-5.2 5.62.4.35.76 1.03.76 2.08 0 1.5-.01 2.71-.01 3.08 0 .31.2.67.79.56 4.5-1.51 7.75-5.77 7.75-10.79C23.25 5.48 18.27.5 12 .5Z"
    />
</svg>
