<svg xmlns="http://www.w3.org/2000/svg"
     fill="none"
     viewBox="0 0 24 24"
     stroke="currentColor"
     stroke-width="1.5">
    <path stroke-linecap="round" stroke-linejoin="round"
          d="M2.25 6.75c0 8.284 6.716 15 15 15h1.5a2.25 2.25 0 002.25-2.25v-1.372a1.125 1.125 0 00-.822-1.086l-4.423-1.106a1.125 1.125 0 00-1.173.417l-.97 1.293a1.125 1.125 0 01-1.21.394 12.035 12.035 0 01-7.143-7.143 1.125 1.125 0 01.394-1.21l1.293-.97a1.125 1.125 0 00.417-1.173L6.708 3.072A1.125 1.125 0 005.622 2.25H4.25A2.25 2.25 0 002 4.5v2.25z" />
</svg>
